<?xml version="1.0" encoding="UTF-8"?>
<svg id="Layer_1" xmlns="http://www.w3.org/2000/svg" version="1.1" viewBox="0 0 446.7 446.7">
  <!-- Generator: Adobe Illustrator 29.0.1, SVG Export Plug-In . SVG Version: 2.1.0 Build 192)  -->
  <defs>
    <style>
      .st0 {
        fill: #fff;
      }
    </style>
  </defs>
  <path class="st0" d="M223.4,0C100,0,0,100,0,223.3s.3,13.5.9,20.1c1.6,20.6,6.1,40.4,12.9,59.1v-1.3c1.4,3.4,2.7,6.9,4.2,10.2v1.4c4.3,10.3,9.4,20.2,15.3,29.7h1.1c39.6,62.6,109.4,104.2,189,104.2,123.4,0,223.4-100,223.4-223.4C446.7,100,346.7,0,223.4,0M45.3,317.3l4.2,8.4-1.9.8-2.8.2c-5-8.7-9.5-17.8-13.2-27.2,4-3.6,7.1-5.8,9.5-5.4l-.8,8.4,5,14.8h0ZM68.5,283.4l.8,1.9c.4,3-1.5,2.7-5.7-1.5l-.8-1.5-2.7-1.2,1.5-4.2,1.9-.8,1.1-1.5c1.1-.4,1.9.8,2.3,3.4v3.4l1.6,2h0ZM61.7,305.9l3.8.8,3.8,1.9,3.1.8.8,8,3.8,7.2-1.5,1.1-7.6,1.5-5.7-1.1-7.6-5.7-3.1-16,1.1-7.6,3,3.4,3.4,2.3,2.7,3.4h0ZM82.2,235.4v2.3l-.4,1.1-1.5.4-.4-.8-1.1-1.5-.4-3.4,1.5-1.5,1.9.4.4,1.1-.4.8.4,1.1ZM83.4,256l-.4,2.7v2.3l1.9-1.9,1.1-2.3c1.1.4,1.5,1.5,1.1,3l-1.5,4.6,1.9,7.6c-.8,1.9-3.4-.4-8.8-8l-5.3-3.8-2.7-5.7,8,4.2c.4-1.5-.4-3-2.3-4.6l-3.8-4.2c-3.4-5.7-3.4-8.4-.8-8.4l2.7,3.4h1.1l7.8,11.1h0ZM89.5,240.3v.8l-.4,1.1-.4.4h-1.5l-1.5-.8v-3.8l.8-1.1c.4-.4,0-1.5-.4-2.3l-.8-2.3.4-1.9c.4-1.9,1.1-1.9,3.4,0l1.5,1.5.4,2.7-.8,2.3-1.1,1.5.4,1.9h0ZM88.7,302.9c-.4,2.7-1.1,3.4-2.3,2.3l-3-3.8-2.7-.4-1.1-1.5-2.7-2.7-1.9-11.4v-.8c1.5-2.7,3-1.9,4.6,3.4,6.8,1.9,10.3,6.5,9.1,14.9M101.3,383.8l4.8-.4c2.8,2.4,2,4.4-1.6,6,0,0-3.2-5.6-3.2-5.6ZM117.6,387c.8,0,1.2.4,1.6,1.2l-4,4.4-.4-4c.4-.8,2-1.2,3.6-1.2,0,0-.8-.4-.8-.4ZM114.8,383c-.4,3.2-2,3.6-4.4,1.6l-1.6-5.2,4.4,1.6c1.2.4,2,1.2,1.6,2M121.2,392.6l.4-1.2,2.8-2.4.8-1.6h1.6l.8,2.8h2l-4.8,5.6-.4-1.2-3.2-2h0ZM137.1,380.3c0,2.8,1.2,4,2.8,3.6,2.8,2,3.6,0,2.8-5.2l4.8-3.2,2,6-.8-.8-2.4,1.2,4.4.4,1.6-.4.4-1.6h1.2l2-.8-.8,4-3.6,1.2c-.4,2.8.8,3.6,2.8,2.8l2-2.4,2.4-1.2c2,0,2.4,2,1.2,4.8l2.4-.4c.4,3.2,0,5.2-1.2,6.4l-4.4-4.8-5.2,2c-1.6-.4-1.6-1.6-.4-3.6l-7.6-2v3.2h-7.1l-1.2-2-.8-2.8,2.7-4.4h0ZM135.5,375.9l1.2-4.8,4.4-1.2v4.4l-1.6,3.6c-1.2-1.2-2.8-2.4-4-2M151.4,371.1l3.2-.8,2,2.8v3.6l-1.2-2h-.4l-.8.4c-4.8.4-5.6-1.2-2.8-4M175.3,379.1h-4.4l.4-3.6c2.4-3.2,3.6-3.2,3.6,0l.4-.8.4,2.4-.4,2ZM172.5,388.6l-.4-4,2.8.4c1.2,2.4.8,3.6-2.4,3.6M170.9,393.4l-4.4,2-1.6-3.6,5.6-1.6c.4.8.8,2,.4,3.2M178.8,376.7v-4l2.4-.4-.4.4c1.2,2.4.8,4-2,4M182,383.8c0,2.8-.4,4-1.2,4.4l.4-.4-2.8-.8v-3.2s3.6,0,3.6,0ZM182,381.8v-2l4.4-.8,1.6,3.6-2,2-1.6-2-2.4-.8h0ZM192,389.8c-1.2.4-1.6-.4-1.2-2.4l1.2-4.4c3.6,0,4.8,1.6,3.6,4.8l-1.2,2-2-.4-1.2-.4.8.8ZM213,392.2l-5.6.8-.4-1.6,6,.8h0ZM207.9,382.2l5.2,1.6c2,2,2,3.2-.4,4l-3.2-1.2c-2.4-1.6-2.8-2.8-1.6-4.4M221,387c1.6-1.2,3.2-.4,3.6,2.4-6,2-7.2,1.2-3.6-2.4M219.8,383.4c0-2.4.8-3.2,2.8-2.4l1.2,2h-.8l-3.2.4h0ZM249.2,387.4l-1.6-.4-1.6-2.8.4-3.6,2-.8v4.4l.8,3.2h0ZM262.3,381.4c.8,1.2,0,2.4-2,3.6-2.8-.4-4.4-1.2-4.8-2.4l2-4.4,4.8,3.2h0ZM258,372.3l3.6-2.4c1.2,2,1.6,3.2.4,4.4-2,.4-3.6,0-4-2M261.5,393.8l-2-.4h-3.2c-.8-1.2-.8-2,.4-2.4l3.2-1.2h1.2c.4,1.2.8,2.4.4,4M259.2,397.4v2.8l-4.8.4.8-2.8,4-.4ZM274.3,384.2c-3.2-2-3.2-3.2-.8-4,1.6-.4,2.4.8,2.4,3.6h.4l-.4.8v-.8l-1.6.4ZM271.9,387.8l-.4,2,3.2.4h2.8c1.6.4,2,2.4,1.2,6.4h-1.2v-.8l-1.6-1.2.4.8-1.6-.8-2-2.4-2.8-2.4-2.8-.4c-2-2.8,0-3.2,4.8-1.6M304.1,380.6c1.2,2.4,1.2,4,0,5.6-2,.8-3.6,0-3.2-2.4l3.2-3.2ZM301.3,367.1l2-1.6.8,1.2v.4l-.4-.4-2.4.4ZM267.1,395.4l1.6-2c1.6,1.2,2,2.8.8,4.8l-2.8,1.6-2-1.2.8-1.6,1.6-1.6h0ZM348.6,387.2v-3l8.8-9.2-7.6,2.8c-2.8,2-4.4,2-4,0l-1.6.4-1.6,3.6-.8-2.4-2.8,2-1.2-4.4-1.6.4-2,9.5c-.4,3.2-1.2,4.4-3.2,3.2l-2-2.8-.4-4-4,.4-.6,5.7c-1.6,2-2.8,2.8-4.8,2.4l-2-2.4-1.2-3.6,5.6-7.6h-4.8l-5.2.8c0-2-.4-3.2-1.6-3.6l11.9-.8,2,.8-6-3.6-4.8-1.6-9.1,2.4c0-3.2,3.2-5.6,9.5-6l-3.6-3.2-6-3.2c-4-1.2-6,.8-6.4,5.6-1.6-1.2-3.6-.8-4.8,2.4l-3.2,5.6c.4,0,2.4,1.6,6.4,4.8l-4.8,2.4-2.4,6,4-4c2.4,0,3.2,1.2,2.4,3.6-1.6,2.8-2.8,4.4-4.8,4.4l-7.2-5.2-2.8-3.2c-.8-1.2.4-2.4,2.4-3.2l4.8.4v-2.4l-3.2-4c-.8-1.6-2-2-3.2-1.6,1.2-2,2.4-2.8,3.6-3.2l-9.5-.8c1.2-4,2.4-6,4.4-5.6-5.6-1.2-9.5-.8-11.1,2,0-3.6.8-6,2.8-7.2-2-1.2-5.2.8-9.5,6l.4-6.8-6.8,9.1-2.8,6.8-3.6,5.2-6-2-4,.4-.4.8c-.8-2.4,0-4,2-6l-4,2.4c-4.4,4.8-6.8,5.2-7.2,1.6l-10,2.4.8-3.6,1.6-3.2-6.4,4,2.8-8.3c.8-2.8,2.4-4.8,5.2-6-2-.8-4,0-6.4,2.8l-5.6,6.4-.7-12.6-2,1.6-.8,2.8-3.2,2.4-2.4,4.8-2.8,2.8c-3.2-6.4-6.4-10.3-9.1-12.7v5.2l2.4,3.6,1.6,5.6,1.2,6-1.6-.8-7.5-3.6-2.4-2.8-2.8-2,2.8-2.4c-.4-.8-2-1.2-5.6-1.2l-6-.8-.8-3.6-4.4,2.4-1.6,2.4-1.2-1.2c-1.6-.4-2.4,0-2.8,1.2l-.8,4-4-2-3.6-3.2,3.6-1.2-4.8-1.6c-2.4,0-4.4.8-6.8,2.8-.4-2.4.8-5.2,3.2-9.1-3.2-1.2-6.4-.8-8.3,2l.4-2.8c-2.8-.4-5.6,1.6-7.6,6.4l-2-6.8c-2.4,2-2.8,4-2.4,7.1l-9.9,1.6c.8,0,2.8,1.2,6,3.2-2.8-.4-4.4,1.6-5.2,4.4l.8,5.2c-.4-2.8.4-4.4,2.4-5.2,2.4-.8,4-.4,6,1.2l-2,6,1.2-1.2c2,2,2.4,3.6,1.2,5.2l-3.6-1.2c-5.6-4.8-8.7-5.6-9.5-2.4-.8-4-2.8-5.6-6-5.2s-5.6,2-7.6,5.2c0-6.4,2.4-11.9,7.2-16.3l-8.3,5.2-4,7.1-2-3.6-3.6-3.6-1.6,7.5-2-1.6h-2v4.3c-11.9-10.6-22.6-22.5-31.7-35.6l10.6-2.3h11.1l16.4-4.2,35.1-2.7,9.5-2.3,6.5-6.5c3.4-4.6,7.2-7.2,11.4-8.4l16.8-5,1.5-6.9,4.9,3.8,6.1.4,2.3-1.9,1.9-2.7,6.5-1.1,13.3,1.5,7.6,13,1.5-6.5-.8-7.2-4.2-3.4-2.7-5.3c-2.7-3.1-6.9-3.4-11.4-1.5-5.3,2.3-9.1,3.4-11.1,2.3.4-5.3,4.6-8.4,12.6-8.4s6.1,1.1,9.2,2.7l7.6,2.7c-1.5-6.9-8.4-11.4-21-14.5-14.9-3-21.3-.4-18.7,8.4l-5.3,1.9c-.4,3-1.5,5-4.6,5.7l-8,1.2c-.4,1.5-.8,2.3-1.9,2.7l-3.8,1.1-3,6.9-6.5.8c-3.1-.4-4.9.8-6.1,3.1l-6.9-3.4-2.7,2.7c-3-.4-3.8-3.1-2.7-8.4,1.5-5.7,4.2-6.9,7.6-3.8.8-2.7,3-3.4,6.1-2.7l7.6,1.5c.8-1.1,3.4-2.3,7.2-2.7l8-3c3.4-2.7,5.7-6.5,8-11.8-3.1-1.1-4.2-2.7-3.1-4.6.8-1.9,2.3-3,5-2.3l-.4-6.1c1.9,1.1,4.2.8,6.5-1.1l6.1-5,8,.4,7.2,1.5c1.9-6.5-3-9.9-14.5-9.1l-11.1,1.5-2.7,3.4-3.8,2.7-1.9-9.9c1.9,1.5,3.8,1.5,6.1,0l5.3-3.8,8.4,1.5,6.5-1.1c-5-10.3-14.9-11.1-30.5-1.9-7.6,4.6-10.3,8.4-9.2,12.2l3,2.7c2.3,1.1,3.1,1.9,3.1,3l-3.4,6.5,3.4,4.2-7.6,4.6-9.9,1.5-4.2,6.1-3.8.8c-1.1-.4-2.3.4-2.7,1.5l-9.5-.8-2.7-3.4-3.8-3.1c-2.7-1.1-4.6.8-6.5,4.2l-3.8,7.6c-7.2-5.3-10.7-14.5-9.9-27.4l8,2.7-3.4-6.9-1.9-8.4c1.5-7.6,5.3-11.1,10.7-11.1v-16c3.8-5.3,5.3-2.7,5.3,6.9.4,6.5-.4,16.8-2.7,31.3l13-23.3,1.1-13c.4-6.1,2.3-8.4,5.3-5.7,2.7,1.9,3.4,6.5,2.3,13.7l-13.3,33.2c1.9.4,4.6-2.7,8-9.5l6.9-13.7,4.6-5.3.8-6.9,5.7-13c1.9.4,2.7,3,1.9,7.2l-1.5,13,11-33.2h2.7l1.1,21c3.1-3.8,5.3-9.2,5.7-14.9l-.4-9.9.8-8.8c5.3-1.5,7.6,2.3,6.9,11.4-.8,9.2,0,13.3,1.9,13,0-10.7,1.5-17.5,5-20.6,1.1,1.1,3.1,5.7,5.7,13.7l7.6,12.6,38.1,25.5,16,6.5c3.4,2.3,8,6.1,12.6,11.4l11.4,12.6c9.5,8.4,20.6,12.6,32.4,13.7l8.8-1.1,4.6-1.1c.4,0,.8.4,1.1.8l1.5.8c8-.8,12.2-3.4,12.6-8.4l-6.5-2.3-4.2-5-15.3-5.3-13.7-8.4-10.5-11.8-12.6-9.1.8-1.9-14.5-20.2c-5.7-13.3-5.7-20.2.4-21.7l5,2.3,6.1-.4-10.3-16.8-8.4-5.7c-5-2.7-8-3.8-9.2-2.7l-1.1-3.8,11.8-1.5,3.4-3.1,4.2-1.1c2.3-.8,4.6,0,6.9,1.9l5.7,2.7,9.5-2.7c3.8-.8,6.9.8,9.1,4.6,2.3,3.4,4.6,6.1,7.2,6.5l9.9,1.9,7.2,5.7c5.7-.4,9.5.8,10.7,3.4l10.3,1.1,11.4,3.8,11.8.4c5.7.4,9.1,1.5,10.7,3.4l4.6-.4,4.2,1.9,7.6-.8c6.5.8,9.5,4.6,9.5,11.4,5,1.9,8.8,1.1,12.6-2.7l4.6-7.6,3.1-7.6c1.9-5,1.5-9.5-1.5-13.3l-8.8-13.7c-3.8-6.5-6.9-10.7-10.3-13.3l-14.5-9.5-15.2-5-17.9-15.6-4.2-1.1-3.4-2.7-25.9-18.3c-11.4-7.2-19.1-13.7-21.3-19.8l-6.9-3.1h-3.4l-3.4-1.1-.4-5.7c.4-3-.8-5.7-2.7-7.2l-15.2-3.8-8-8.4c-2.7-.4-6.9,1.1-13,4.6l-5.7,1.5-6.5.4-11.1,5.7-12.2,1.5c-1.9,0-4.2,1.1-7.6,3.8l-8,4.2c-3.4.8-8.8-.4-16.8-5l-4.2-3c-1.9-1.1-3.4,0-4.6,1.9l4.6,6.5,1.9,1.1,1.9,1.5-.8,4.2,2.7,4.2c1.1,1.1,1.1,2.7,0,4.2l-9.1-2.7-7.2-5-9.1-1.1c-3.8.4-6.1,2.3-6.9,4.6l8.4,5.3c3.8,1.9,5,4.2,4.6,7.6,5,0,6.1,1.9,3.4,5l-8.4,1.1c-2.7.4-6.9-1.1-12.6-4.2-7.2-3.8-11.1-3.4-11.4,1.1l3.4,5.3,3.4,6.5c2.7,8.8,1.5,12.2-3.8,11.1l-5.7-3.4-6.9-1.1c-4.2,1.9-4.2,5.3,0,9.9,5.7,5.7,8,9.9,7.6,11.8l-6.9-2.3c-2.3-1.1-3.4-.8-3.8,1.5l3,6.1c2.3,2.3,3.4,4.2,3.1,6.5l-8-3.4c-2.7-2.7-5.3-3.4-7.6-2.7l6.1,14.9c0,5-1.1,6.1-3,3.8l-6.1-6.5c-3.8-.8-5.3.8-4.6,4.6l3,8c.8,3.4-.8,8-4.9,13l-3.8-3.4c-1.1-1.9-2.3-2.7-3.8-2.3-1.9.4-2.7,1.1-1.9,3l2.7,4.2c3.4,6.5,3.1,8.4-1.9,6.5l-4.6-8.4c-2.7-.4-3,1.5-1.5,5.7s.8,7.2-2.3,7.6c-3,.4-6.1-4.2-8.8-14.5-2.3,1.1-3.4,4.2-3.4,8.4-.4,5-.8,7.6-1.9,8.8-2.3,3.4-4.2,3.8-5.7,1.5l-5.3-7.2-3.8-1.1-2.3-3.4c-2.3-.8-4.6,0-5.7,1.9v8l1.1,8.8-3.8-.8-13-8.8c-.9-.6-1.8-1-2.5-1.3C31.8,95.4,118.4,17,223.4,17s206.3,92.4,206.3,206.3c-.1,66.8-31.8,126.2-81.1,163.9M96.3,298.7l.4.4,3.8,5.3-3.4,6.1c-2.7,2.7-4.2,2.7-4.6,0l1.1-3.1.4-3c-1.1-5.4-.7-7.3,2.3-5.7M263.3,103.5l-5.3-6.1c-.4-2.3.4-4.6,3.4-7.6,2.7-2.3,5.3-3.1,7.2-2.7l-1.5-1.5.4-1.5h1.9l7.2,15.2c1.9,6.5,2.3,12.2,1.1,16.8l-8,15.2c-4.6,5.7-8.4,6.5-12.6,1.1-4.2-5.3-4.2-9.5,0-11.8,6.1-3.8,9.5-6.5,9.9-10.3.5-3-.6-4.9-3.7-6.8M298,127.1l-3-8-1.1-8.8,3.4-1.5c3-2.3,5.7-.4,9.1,6.1l19.4,24c3,5,2.3,9.5-2.7,14.1-6.5,6.1-11.1,9.1-14.1,8l-11-10.6c-5.3-6.5-7.2-10.3-6.5-11.4l3.8-1.2,3-1.9c.8-1.5.8-4.2-.3-8.8M351,166.4l-11.1-.8-8.8.8c-4.6-.8-5-3.4-1.1-8,1.1-1.9,5.3-2.7,11.4-2.7l-5.7,2.3c11.5-1.9,16.4.8,15.3,8.4"/>
  <path class="st0" d="M322,252.5l-16.8,11.4c-1.5.8-1.9,1.5-.8,2.7l3.8,1.5c2.7,0,6.1-2.3,9.1-6.9,0,0,4.7-8.7,4.7-8.7ZM325.5,275.8c3.4,2.3,6.9-4.2,11.1-20.2-9.2,11.4-13.1,18.3-11.1,20.2M306.4,245.3c-7.6,9.9-10.7,14.9-8.8,16,3,1.9,5-.4,6.9-5.3l1.9-10.7ZM331.9,248.7l-9.5,9.9c-5.7,6.9-7.6,10.7-5.7,12.6,2.3,1.9,5.7-1.5,9.9-8.8,3.4-6.8,5.7-11.8,5.3-13.7M291.9,251l-.4,4.2c.4,1.5,1.9,1.9,3.4.8,4.2-4.6,6.5-9.9,7.6-17.5l-10.6,12.5ZM294.6,234.2l-9.6,9.2-1.1,3.8,3,2.3,4.6-6.9,3.1-8.4ZM283.9,222l-13,10.7.8,4.2c1.1,1.1,2.3,1.5,3,.8l5-6.1,4.2-9.6ZM287.7,229.3l-7.2,7.6c-3.4,2.7-4.2,4.2-1.5,5.3,1.5.8,3.8-.8,6.1-4.6,1.8-3,2.6-5.7,2.6-8.3M352.5,203l-1.1.4-1.1,1.5-1.9,4.6-5,6.9,8.4-6.1c3-5,3-7.3.7-7.3M376.9,206.8c.8-2.3.4-3.8-.8-4.2-2.3-.8-3.8-.8-5,1.5l-2.3,5.7c-1.5,4.6-4.6,8.8-8.8,13l13-9.9c2.4-2.3,3.5-4.2,3.9-6.1"/>
  <path class="st0" d="M331.2,280c4.6,3.4,7.2-2.3,8.8-16.8-8.8,8.8-11.9,14.1-8.8,16.8M380,223.2c3.4,0,6.9-1.2,11.1-4.2,3.8-2.7,5.3-4.9,3.8-6.5-1.2-1.9-5.8,1.9-14.9,10.7M384.5,204.5c-2.3-1.1-5,1.1-6.9,6.1l-5.3,9.5,9.9-7.2c3.5-5,4.2-7.6,2.3-8.4M367.4,201.8c-1.1-.8-3.1,0-4.2,2.7-2.7,5.7-6.5,11.1-11.8,14.5,3.4,0,8-2.3,12.6-6.5,3-6.5,4.5-9.9,3.4-10.7M267.9,223.6l-3.4,3.4,2.7,2.3c3.1.8,5.7-2.7,7.6-10.3,0,0-6.9,4.6-6.9,4.6ZM342.2,199.9c.4-1.9,0-3.1-1.1-3.4-1.9-.8-3.8.4-6.1,3.4l-10.7,14.5c9.2-2.7,14.9-7.6,17.9-14.5M350.6,200.3l-.8-1.9h-2.7l-1.9,1.5c-3.1,6.9-6.5,11.4-9.5,14.1l13.3-9.9,1.6-3.8h0ZM306,257.5c-.4,1.9,0,2.7,1.1,3l3.8-1.9,5.7-11.4,3.4-12.2-11.4,17.2-2.6,5.3ZM332.3,198.4l.8-1.9-.8-1.5-1.5-1.5-1.9.8-13,17.9c8.4-3.9,13.7-8.1,16.4-13.8M390.6,206.4c-1.2-1.2-2.7-.8-4.6,1.9l-2.7,5.7c6.9-3.4,9.2-5.7,7.3-7.6M359.8,207.9l2.7-6.1c-.4-1.9-1.9-1.9-3.8-1.1-1.1.4-1.9,2.3-1.9,4.2l-3,8c1.8,0,3.7-1.5,6-5M312.9,196.9c3.4-3.8,4.2-6.5,2.7-8.4-.8-.8-2.7,0-4.6,1.9l-6.5,13,8.4-6.5ZM260.3,208.7l1.9-3.8-5.7,2.3v2.7c1.1,1.5,2.6.7,3.8-1.2M266.4,209.5l-5,3.4c-1.9,1.5-3.1,2.7-1.5,3.4,1.9,1.5,4.2-.7,6.5-6.8M309.1,209.8l9.5-8,5-6.5-.4-4.2c-3.4.4-5.3,1.5-6.1,3.4l-2.3,5.3-5.7,10h0ZM303.3,183.2c-2.3-1.1-4.2,1.5-5.3,7.2l4.2-3c1.9-2.3,2.3-3.9,1.1-4.2M271.3,214l-6.9,3.4c-3.1,2.3-3.4,4.2-1.5,6.1,1.2,1.6,4.2-1.5,8.4-9.5M305.6,193.1l4.6-5-1.5-2.3-4.2,3.4-3.8,6.9,4.9-3Z"/>
</svg>